<svg xmlns="http://www.w3.org/2000/svg" viewBox="0 0 1366 1904" preserveAspectRatio="xMidYMid" width="1366" height="1904" xmlns:xlink="http://www.w3.org/1999/xlink" style="shape-rendering:auto;display:block;background-position-x:0%;background-position-y:0%;background-size:auto;background-origin:padding-box;background-clip:border-box;background:scroll rgb(255, 255, 255) none  repeat;width:1366px;height:1904px;;animation:none"><g><defs><filter height="3" width="3" y="-1" x="-1" id="blur-y4i138oy3hd-1"><feGaussianBlur stdDeviation="3"></feGaussianBlur></filter>
<filter height="3" width="3" y="-1" x="-1" id="blur-y4i138oy3hd-2"><feGaussianBlur stdDeviation="1.5"></feGaussianBlur></filter>
<filter height="3" width="3" y="-1" x="-1" id="blur-y4i138oy3hd-3"><feGaussianBlur stdDeviation="1"></feGaussianBlur></filter></defs>
<circle opacity="0.63" fill="#ff0000" r="8" transform="matrix(1,0,0,1,-41.33859634399414,0.0004558563232421875)" cy="0" cx="438.8400081929386" style="fill:rgb(255, 0, 0);transform:matrix(1, 0, 0, 1, -41.3386, 0.000455856);opacity:0.63;;animation:none"></circle>
<circle opacity="0.63" fill="#fbb034" r="8" transform="matrix(1,0,0,1,-125.99726104736328,1588.6815185546875)" cy="0" cx="666.3104633923008" style="fill:rgb(251, 176, 52);transform:matrix(1, 0, 0, 1, -125.997, 1588.68);opacity:0.63;;animation:none"></circle>
<circle opacity="0.7200000000000001" fill="#ffdd00" r="12" transform="matrix(1,0,0,1,110.66950988769531,648.799072265625)" cy="0" cx="93.3455395631631" style="fill:rgb(255, 221, 0);transform:matrix(1, 0, 0, 1, 110.67, 648.799);opacity:0.72;;animation:none"></circle>
<circle opacity="0.36000000000000004" fill="#c1d82f" r="4" transform="matrix(1,0,0,1,79.85074615478516,1147.0943603515625)" cy="0" cx="1308.3689327427055" style="fill:rgb(193, 216, 47);transform:matrix(1, 0, 0, 1, 79.8507, 1147.09);opacity:0.36;;animation:none"></circle>
<circle opacity="0.7200000000000001" fill="#00a4e4" r="12" transform="matrix(1,0,0,1,58.43779754638672,1770.1044921875)" cy="0" cx="722.1885819617542" style="fill:rgb(0, 164, 228);transform:matrix(1, 0, 0, 1, 58.4378, 1770.1);opacity:0.72;;animation:none"></circle>
<circle opacity="0.36000000000000004" fill="#c275da" r="4" transform="matrix(1,0,0,1,-62.24895477294922,969.8707275390625)" cy="0" cx="1035.0128825551637" style="fill:rgb(194, 117, 218);transform:matrix(1, 0, 0, 1, -62.249, 969.871);opacity:0.36;;animation:none"></circle>
<circle opacity="0.7200000000000001" fill="#ff0000" r="12" transform="matrix(1,0,0,1,58.68364715576172,425.15167236328125)" cy="0" cx="412.46476223686955" style="fill:rgb(255, 0, 0);transform:matrix(1, 0, 0, 1, 58.6836, 425.152);opacity:0.72;;animation:none"></circle>
<circle opacity="0.63" fill="#fbb034" r="8" transform="matrix(1,0,0,1,6.390251159667969,1637.7210693359375)" cy="0" cx="235.42877054989182" style="fill:rgb(251, 176, 52);transform:matrix(1, 0, 0, 1, 6.39025, 1637.72);opacity:0.63;;animation:none"></circle>
<circle opacity="0.63" fill="#ffdd00" r="8" transform="matrix(1,0,0,1,-2.6105804443359375,1055.6396484375)" cy="0" cx="928.1396270334441" style="fill:rgb(255, 221, 0);transform:matrix(1, 0, 0, 1, -2.61058, 1055.64);opacity:0.63;;animation:none"></circle>
<circle opacity="0.36000000000000004" fill="#c1d82f" r="4" transform="matrix(1,0,0,1,81.49391174316406,1509.9619140625)" cy="0" cx="1083.1477776817467" style="fill:rgb(193, 216, 47);transform:matrix(1, 0, 0, 1, 81.4939, 1509.96);opacity:0.36;;animation:none"></circle>
<circle opacity="0.36000000000000004" fill="#00a4e4" r="4" transform="matrix(1,0,0,1,-24.70347023010254,764.287109375)" cy="0" cx="404.1252285943696" style="fill:rgb(0, 164, 228);transform:matrix(1, 0, 0, 1, -24.7035, 764.287);opacity:0.36;;animation:none"></circle>
<circle opacity="0.7200000000000001" fill="#c275da" r="12" transform="matrix(1,0,0,1,77.6159439086914,319.78521728515625)" cy="0" cx="641.8201595564639" style="fill:rgb(194, 117, 218);transform:matrix(1, 0, 0, 1, 77.6159, 319.785);opacity:0.72;;animation:none"></circle>
<circle opacity="0.63" fill="#ff0000" r="8" transform="matrix(1,0,0,1,9.839103698730469,1086.48046875)" cy="0" cx="405.57686229955914" style="fill:rgb(255, 0, 0);transform:matrix(1, 0, 0, 1, 9.8391, 1086.48);opacity:0.63;;animation:none"></circle>
<circle opacity="0.36000000000000004" fill="#fbb034" r="4" transform="matrix(1,0,0,1,-16.024381637573242,44.16490936279297)" cy="0" cx="1291.5754932078912" style="fill:rgb(251, 176, 52);transform:matrix(1, 0, 0, 1, -16.0244, 44.1649);opacity:0.36;;animation:none"></circle>
<circle opacity="0.7200000000000001" fill="#ffdd00" r="12" transform="matrix(1,0,0,1,33.93732452392578,97.6392593383789)" cy="0" cx="1199.5910407257036" style="fill:rgb(255, 221, 0);transform:matrix(1, 0, 0, 1, 33.9373, 97.6393);opacity:0.72;;animation:none"></circle>
<circle opacity="0.7200000000000001" fill="#c1d82f" r="12" transform="matrix(1,0,0,1,-118.24002075195312,307.9444580078125)" cy="0" cx="1143.9122840822074" style="fill:rgb(193, 216, 47);transform:matrix(1, 0, 0, 1, -118.24, 307.944);opacity:0.72;;animation:none"></circle>
<circle opacity="0.63" fill="#00a4e4" r="8" transform="matrix(1,0,0,1,-65.49147033691406,123.65802001953125)" cy="0" cx="900.5200568120739" style="fill:rgb(0, 164, 228);transform:matrix(1, 0, 0, 1, -65.4915, 123.658);opacity:0.63;;animation:none"></circle>
<circle opacity="0.36000000000000004" fill="#c275da" r="4" transform="matrix(1,0,0,1,-16.146888732910156,1462.8355712890625)" cy="0" cx="674.5488334243855" style="fill:rgb(194, 117, 218);transform:matrix(1, 0, 0, 1, -16.1469, 1462.84);opacity:0.36;;animation:none"></circle>
<circle opacity="0.36000000000000004" fill="#ff0000" r="4" transform="matrix(1,0,0,1,25.05950164794922,978.3180541992188)" cy="0" cx="1112.792467065705" style="fill:rgb(255, 0, 0);transform:matrix(1, 0, 0, 1, 25.0595, 978.318);opacity:0.36;;animation:none"></circle>
<circle opacity="0.63" fill="#fbb034" r="8" transform="matrix(1,0,0,1,65.24528503417969,1818.2464599609375)" cy="0" cx="961.9126907952239" style="fill:rgb(251, 176, 52);transform:matrix(1, 0, 0, 1, 65.2453, 1818.25);opacity:0.63;;animation:none"></circle>
<circle opacity="0.7200000000000001" fill="#ffdd00" r="12" transform="matrix(1,0,0,1,110.83030700683594,1079.15380859375)" cy="0" cx="175.8276021453856" style="fill:rgb(255, 221, 0);transform:matrix(1, 0, 0, 1, 110.83, 1079.15);opacity:0.72;;animation:none"></circle>
<circle opacity="0.7200000000000001" fill="#c1d82f" r="12" transform="matrix(1,0,0,1,-95.70083618164062,587.418701171875)" cy="0" cx="964.9082770820082" style="fill:rgb(193, 216, 47);transform:matrix(1, 0, 0, 1, -95.7008, 587.419);opacity:0.72;;animation:none"></circle>
<circle opacity="0.36000000000000004" fill="#00a4e4" r="4" transform="matrix(1,0,0,1,-5.469552993774414,86.58784484863281)" cy="0" cx="199.65975029129078" style="fill:rgb(0, 164, 228);transform:matrix(1, 0, 0, 1, -5.46955, 86.5878);opacity:0.36;;animation:none"></circle>
<circle opacity="0.63" fill="#c275da" r="8" transform="matrix(1,0,0,1,-71.42534637451172,534.5542602539062)" cy="0" cx="377.4835854370191" style="fill:rgb(194, 117, 218);transform:matrix(1, 0, 0, 1, -71.4253, 534.554);opacity:0.63;;animation:none"></circle>
<circle opacity="0.36000000000000004" fill="#ff0000" r="4" transform="matrix(1,0,0,1,-60.235076904296875,1513.9248046875)" cy="0" cx="908.6843221386268" style="fill:rgb(255, 0, 0);transform:matrix(1, 0, 0, 1, -60.2351, 1513.92);opacity:0.36;;animation:none"></circle>
<circle opacity="0.36000000000000004" fill="#fbb034" r="4" transform="matrix(1,0,0,1,-52.77016067504883,1830.5130615234375)" cy="0" cx="1135.7778070085856" style="fill:rgb(251, 176, 52);transform:matrix(1, 0, 0, 1, -52.7702, 1830.51);opacity:0.36;;animation:none"></circle>
<circle opacity="0.7200000000000001" fill="#ffdd00" r="12" transform="matrix(1,0,0,1,100.486328125,123.21495056152344)" cy="0" cx="247.2430011638805" style="fill:rgb(255, 221, 0);transform:matrix(1, 0, 0, 1, 100.486, 123.215);opacity:0.72;;animation:none"></circle>
<circle opacity="0.36000000000000004" fill="#c1d82f" r="4" transform="matrix(1,0,0,1,101.90257263183594,486.968017578125)" cy="0" cx="1257.8451914624272" style="fill:rgb(193, 216, 47);transform:matrix(1, 0, 0, 1, 101.903, 486.968);opacity:0.36;;animation:none"></circle>
<circle opacity="0.63" fill="#00a4e4" r="8" transform="matrix(1,0,0,1,67.04534912109375,1189.2001953125)" cy="0" cx="301.3979449903611" style="fill:rgb(0, 164, 228);transform:matrix(1, 0, 0, 1, 67.0453, 1189.2);opacity:0.63;;animation:none"></circle>
<circle opacity="0.7200000000000001" fill="#c275da" r="12" transform="matrix(1,0,0,1,11.95672607421875,556.763671875)" cy="0" cx="192.86744065281331" style="fill:rgb(194, 117, 218);transform:matrix(1, 0, 0, 1, 11.9567, 556.764);opacity:0.72;;animation:none"></circle>
<circle opacity="0.7200000000000001" fill="#ff0000" r="12" transform="matrix(1,0,0,1,80.09342956542969,1450.3897705078125)" cy="0" cx="81.26786006763567" style="fill:rgb(255, 0, 0);transform:matrix(1, 0, 0, 1, 80.0934, 1450.39);opacity:0.72;;animation:none"></circle>
<circle opacity="0.7200000000000001" fill="#fbb034" r="12" transform="matrix(1,0,0,1,116.99827575683594,1695.129150390625)" cy="0" cx="499.92713954190475" style="fill:rgb(251, 176, 52);transform:matrix(1, 0, 0, 1, 116.998, 1695.13);opacity:0.72;;animation:none"></circle>
<circle opacity="0.36000000000000004" fill="#ffdd00" r="4" transform="matrix(1,0,0,1,-53.8648567199707,73.47991943359375)" cy="0" cx="1155.1114700690127" style="fill:rgb(255, 221, 0);transform:matrix(1, 0, 0, 1, -53.8649, 73.4799);opacity:0.36;;animation:none"></circle>
<circle opacity="0.36000000000000004" fill="#c1d82f" r="4" transform="matrix(1,0,0,1,53.45513153076172,186.1337432861328)" cy="0" cx="1358.0185396171062" style="fill:rgb(193, 216, 47);transform:matrix(1, 0, 0, 1, 53.4551, 186.134);opacity:0.36;;animation:none"></circle>
<circle opacity="0.7200000000000001" fill="#00a4e4" r="12" transform="matrix(1,0,0,1,-23.53017807006836,1137.46728515625)" cy="0" cx="704.2227481551096" style="fill:rgb(0, 164, 228);transform:matrix(1, 0, 0, 1, -23.5302, 1137.47);opacity:0.72;;animation:none"></circle>
<circle opacity="0.7200000000000001" fill="#c275da" r="12" transform="matrix(1,0,0,1,-101.10201263427734,90.30883026123047)" cy="0" cx="61.316602693533355" style="fill:rgb(194, 117, 218);transform:matrix(1, 0, 0, 1, -101.102, 90.3088);opacity:0.72;;animation:none"></circle>
<circle opacity="0.7200000000000001" fill="#ff0000" r="12" transform="matrix(1,0,0,1,-120.706787109375,1571.361572265625)" cy="0" cx="882.5093257587016" style="fill:rgb(255, 0, 0);transform:matrix(1, 0, 0, 1, -120.707, 1571.36);opacity:0.72;;animation:none"></circle>
<circle opacity="0.63" fill="#fbb034" r="8" transform="matrix(1,0,0,1,-6.280517578125,1130.2244873046875)" cy="0" cx="878.7426211515528" style="fill:rgb(251, 176, 52);transform:matrix(1, 0, 0, 1, -6.28052, 1130.22);opacity:0.63;;animation:none"></circle>
<circle opacity="0.63" fill="#ffdd00" r="8" transform="matrix(1,0,0,1,81.61267852783203,297.82476806640625)" cy="0" cx="234.4920896692243" style="fill:rgb(255, 221, 0);transform:matrix(1, 0, 0, 1, 81.6127, 297.825);opacity:0.63;;animation:none"></circle>
<g></g></g><!-- [ldio] generated by https://loading.io --></svg>